<svg xmlns="http://www.w3.org/2000/svg" viewBox="0 0 515.34 59.41"><defs><style>.cls-1{fill:#fff;}</style></defs><g id="Layer_2" data-name="Layer 2"><g id="Layer_1-2" data-name="Layer 1"><path class="cls-1" d="M73.06.68V20.21a7.34,7.34,0,0,1-14.68,0V.68H49.63V15.42H36.45a11.65,11.65,0,0,0-3.6.58A16.42,16.42,0,0,0,0,16.3H0V41.64H8.76V30.94a16.36,16.36,0,0,0,16.49-.67,11.67,11.67,0,0,0,11.2,8.46h7.43a2.9,2.9,0,0,1,0,5.8H26.3v8.75H43.88a11.65,11.65,0,1,0,0-23.3H36.45a2.91,2.91,0,0,1,0-5.81H50.14a16.09,16.09,0,0,0,31.68-4V.68ZM16.44,24.1a7.68,7.68,0,1,1,7.68-7.67A7.68,7.68,0,0,1,16.44,24.1Z"/><path class="cls-1" d="M99.74,6.35A6.15,6.15,0,1,1,93.59.21,6.15,6.15,0,0,1,99.74,6.35Z"/><rect class="cls-1" x="105.79" y="1.64" width="38.53" height="8.86"/><path class="cls-1" d="M105.72,51.2V26.71h4.14V48h12.55V51.2Z"/><path class="cls-1" d="M133.36,51.58c-3.25,0-5.62-.81-7.13-2.43s-2.26-3.94-2.26-7,.76-5.34,2.28-7,3.89-2.43,7.11-2.43,5.63.81,7.15,2.43,2.28,3.94,2.28,7-.76,5.33-2.26,7S136.63,51.58,133.36,51.58Zm0-3.5c1.9,0,3.25-.46,4-1.39a6.81,6.81,0,0,0,1.2-4.5c0-2.08-.4-3.58-1.2-4.49s-2.15-1.37-4-1.37a5.1,5.1,0,0,0-4,1.37c-.8.91-1.2,2.41-1.2,4.49a6.81,6.81,0,0,0,1.2,4.5C130.15,47.62,131.48,48.08,133.36,48.08Z"/><path class="cls-1" d="M154.12,57.89a31.94,31.94,0,0,1-4-.25,16,16,0,0,1-3.42-.74V53.71a20.19,20.19,0,0,0,3.49.76,28,28,0,0,0,3.77.27,18.82,18.82,0,0,0,4-.31c.84-.2,1.25-.66,1.25-1.37a1.17,1.17,0,0,0-.6-1.12,5.54,5.54,0,0,0-2.32-.32h-4.87c-3.27,0-4.9-1.16-4.9-3.46a3.6,3.6,0,0,1,.64-2.06,4,4,0,0,1,2-1.44,5.16,5.16,0,0,1-2.3-2.09,6.51,6.51,0,0,1-.74-3.19q0-3.47,2.08-5t6.21-1.56a13.13,13.13,0,0,1,1.83.13c.63.09,1.12.17,1.48.25h6.61l-.11,2.7h-3a3.5,3.5,0,0,1,1.06,1.52,5.57,5.57,0,0,1,.35,2,6,6,0,0,1-1.75,4.54,7.47,7.47,0,0,1-5.29,1.65c-.4,0-.78,0-1.12,0l-1.12-.14a5.39,5.39,0,0,0-2,.61,1.49,1.49,0,0,0-.92,1.33.88.88,0,0,0,.46.82,3.45,3.45,0,0,0,1.52.25h5.06a6.58,6.58,0,0,1,4.16,1.15A4,4,0,0,1,163,52.91a4,4,0,0,1-2.3,3.82A15,15,0,0,1,154.12,57.89Zm.3-14.94a5.32,5.32,0,0,0,3.44-.84,3.58,3.58,0,0,0,1-2.85,3.86,3.86,0,0,0-1-2.93,5,5,0,0,0-3.44-.91,5.33,5.33,0,0,0-3.38.87,3.67,3.67,0,0,0-1.07,3,3.54,3.54,0,0,0,1,2.81A5.23,5.23,0,0,0,154.42,43Z"/><path class="cls-1" d="M168.79,51.2V36.33h-2.73l.38-3.15h6.5v18Zm-.34-21.79V26H173v3.42Z"/><path class="cls-1" d="M177.76,51.2v-18h3.81l.19,1.9a11.85,11.85,0,0,1,2.91-1.62,10.16,10.16,0,0,1,3.74-.66q3.5,0,5.1,1.63t1.59,5.1V51.2H191V39.72a4,4,0,0,0-.86-2.93,4.62,4.62,0,0,0-3.21-.84,7.33,7.33,0,0,0-5,2.06V51.2Z"/><path class="cls-1" d="M212.7,51.2l-4.71-18h3.12l3.53,14.48,4-12.39V33.18h2.4l4.45,14.48,3.53-14.48h3.12l-4.71,18h-3.12l-4.22-13.08-4.3,13.08Z"/><path class="cls-1" d="M237.42,51.2V35.65h-2.78l.31-2.47h5.59v18ZM237.11,29V26.11h3.46V29Z"/><path class="cls-1" d="M252.47,51.58a5.28,5.28,0,0,1-4-1.43,5.54,5.54,0,0,1-1.35-4V35.65h-2.73V33.18h2.73V28.73l3.12-.95v5.4h5L255,35.65h-4.79V46a3.14,3.14,0,0,0,.74,2.34,3.71,3.71,0,0,0,2.57.7,7.25,7.25,0,0,0,2.17-.38v2.36A9.25,9.25,0,0,1,252.47,51.58Z"/><path class="cls-1" d="M259.32,51.2V25.57h3.11v9.55a10.71,10.71,0,0,1,2.95-1.68,11,11,0,0,1,3.94-.64,6.77,6.77,0,0,1,4.9,1.59q1.63,1.61,1.64,5V51.2h-3.12V39.53a4.25,4.25,0,0,0-1.05-3.29,5.13,5.13,0,0,0-3.44-.93,8.79,8.79,0,0,0-5.82,2.39V51.2Z"/><path class="cls-1" d="M289.24,51.2V26.71h11.48a9,9,0,0,1,4.73,1.11,6.89,6.89,0,0,1,2.76,3,9.87,9.87,0,0,1,.91,4.33,9,9,0,0,1-1,4.38,7.31,7.31,0,0,1-3,2.94,9.31,9.31,0,0,1-4.54,1.05h-6.2V51.2Zm5.13-11.75h5.13a4.45,4.45,0,0,0,3.33-1.16A4.31,4.31,0,0,0,304,35.15a4.56,4.56,0,0,0-1.06-3.25,4.25,4.25,0,0,0-3.2-1.12h-5.32Z"/><path class="cls-1" d="M319.58,51.58a26.25,26.25,0,0,1-4.39-.34,15.22,15.22,0,0,1-3.52-1V45.72a21.17,21.17,0,0,0,3.61,1.11,17.91,17.91,0,0,0,3.8.42,11.42,11.42,0,0,0,3.92-.5,2.13,2.13,0,0,0,1.25-2.24,2.63,2.63,0,0,0-.53-1.75,4.45,4.45,0,0,0-1.84-1.16,38.34,38.34,0,0,0-3.71-1.16,12.17,12.17,0,0,1-5.4-2.66,6.06,6.06,0,0,1-1.56-4.41,6.11,6.11,0,0,1,2.47-5.21q2.47-1.83,7.19-1.83a26.41,26.41,0,0,1,4.11.31,17.88,17.88,0,0,1,3.08.72v4.52a18.39,18.39,0,0,0-6.51-1.17,11.12,11.12,0,0,0-3.76.51,2.07,2.07,0,0,0-1.37,2.15,2.24,2.24,0,0,0,.5,1.52,4.27,4.27,0,0,0,1.69,1q1.2.45,3.36,1a15.71,15.71,0,0,1,4.64,1.9,6.1,6.1,0,0,1,2.26,2.51,7.65,7.65,0,0,1,.63,3.16,6.23,6.23,0,0,1-2.43,5.13C325.44,50.93,323,51.58,319.58,51.58Z"/><path class="cls-1" d="M343.83,51.58a12.16,12.16,0,0,1-8-2.45A8.77,8.77,0,0,1,332.88,42V26.71H338V41.62a5.4,5.4,0,0,0,1.52,4.2,7.3,7.3,0,0,0,8.57,0,5.47,5.47,0,0,0,1.5-4.2V26.71h5.14V42c0,3.12-1,5.49-2.93,7.13S347.21,51.58,343.83,51.58Z"/><path class="cls-1" d="M367.25,51.2V26.71h11.49a9.07,9.07,0,0,1,4.73,1.11,6.89,6.89,0,0,1,2.76,3,10,10,0,0,1,.91,4.33,8.92,8.92,0,0,1-1.05,4.38,7.23,7.23,0,0,1-3,2.94,9.35,9.35,0,0,1-4.55,1.05h-6.19V51.2Zm5.14-11.75h5.13a4.45,4.45,0,0,0,3.33-1.16A4.35,4.35,0,0,0,382,35.15a4.56,4.56,0,0,0-1.07-3.25,4.22,4.22,0,0,0-3.19-1.12h-5.32Z"/><path class="cls-1" d="M394.89,51.58a7.9,7.9,0,0,1-3.17-.63,5.58,5.58,0,0,1-2.36-1.86,5.19,5.19,0,0,1-.89-3.1,5.33,5.33,0,0,1,1.88-4.26,8.45,8.45,0,0,1,5.57-1.59h5.32v-.5a2.75,2.75,0,0,0-.93-2.36,7,7,0,0,0-3.74-.68,18.69,18.69,0,0,0-5.93.95V33.94a16.28,16.28,0,0,1,3.06-.82,22.82,22.82,0,0,1,3.93-.32,10.39,10.39,0,0,1,6.29,1.65q2.24,1.65,2.23,5.3V51.2H401.7l-.27-1.64a7.52,7.52,0,0,1-2.62,1.49A12.42,12.42,0,0,1,394.89,51.58Zm1.41-3.38a7,7,0,0,0,3-.58,5.34,5.34,0,0,0,2-1.44V43.33H396c-2,0-3,.82-3,2.47S394.12,48.2,396.3,48.2Z"/><path class="cls-1" d="M416.64,51.58a24.93,24.93,0,0,1-3.84-.29,15,15,0,0,1-2.93-.7V46.33a14.47,14.47,0,0,0,3,.82,18.41,18.41,0,0,0,3.08.29,10.92,10.92,0,0,0,2.68-.23,1,1,0,0,0,.78-1c0-.61-.4-1-1.2-1.33s-2-.67-3.56-1.18a11.3,11.3,0,0,1-3.8-2,4.42,4.42,0,0,1-1.33-3.5,4.63,4.63,0,0,1,1.88-4q1.89-1.39,6.07-1.39a19.65,19.65,0,0,1,3.15.24,18.42,18.42,0,0,1,2.51.59v4.22a10,10,0,0,0-2.35-.74,14.1,14.1,0,0,0-2.48-.24,12,12,0,0,0-2.6.22c-.65.16-1,.49-1,1s.35,1,1.05,1.18,1.78.57,3.25,1a14.46,14.46,0,0,1,3.38,1.4,4.39,4.39,0,0,1,1.71,1.81,6.09,6.09,0,0,1,.5,2.6Q424.63,51.58,416.64,51.58Z"/><path class="cls-1" d="M433.6,51.58a24.83,24.83,0,0,1-3.84-.29,15,15,0,0,1-2.93-.7V46.33a14.54,14.54,0,0,0,3,.82,18.6,18.6,0,0,0,3.08.29,10.86,10.86,0,0,0,2.68-.23,1,1,0,0,0,.78-1c0-.61-.4-1-1.19-1.33s-2-.67-3.56-1.18a11.2,11.2,0,0,1-3.8-2,4.42,4.42,0,0,1-1.33-3.5,4.63,4.63,0,0,1,1.88-4c1.25-.93,3.28-1.39,6.06-1.39a19.78,19.78,0,0,1,3.16.24,18.42,18.42,0,0,1,2.51.59v4.22a9.92,9.92,0,0,0-2.36-.74,13.91,13.91,0,0,0-2.47-.24,12,12,0,0,0-2.6.22c-.65.16-1,.49-1,1s.35,1,1,1.18l3.25,1a14.38,14.38,0,0,1,3.39,1.4,4.39,4.39,0,0,1,1.71,1.81,6.09,6.09,0,0,1,.49,2.6Q441.58,51.58,433.6,51.58Z"/><path class="cls-1" d="M445.16,59.41V33.18h4.44l.27,1.67a9,9,0,0,1,2.59-1.52,9.4,9.4,0,0,1,3.3-.53A8.25,8.25,0,0,1,461.87,35Q464,37.1,464,42c0,3.25-.76,5.66-2.3,7.24a8.26,8.26,0,0,1-6.25,2.38,9.38,9.38,0,0,1-5.17-1.37v9.2Zm9-11.59a4.26,4.26,0,0,0,3.46-1.41A6.84,6.84,0,0,0,458.81,42a6.5,6.5,0,0,0-1.07-4.17,4.24,4.24,0,0,0-3.42-1.27,5.56,5.56,0,0,0-4,1.64v8.25a8.22,8.22,0,0,0,1.69,1A5.65,5.65,0,0,0,454.17,47.82Z"/><path class="cls-1" d="M476.6,51.58q-5.06,0-7.42-2.45t-2.35-6.94c0-3,.79-5.31,2.37-6.94s4.05-2.45,7.4-2.45,5.85.82,7.43,2.45a9.58,9.58,0,0,1,2.38,6.94,9.63,9.63,0,0,1-2.36,6.94C482.48,50.76,480,51.58,476.6,51.58Zm0-4.37a4.73,4.73,0,0,0,3.53-1.12,5.63,5.63,0,0,0,1.07-3.9,5.63,5.63,0,0,0-1.07-3.9,6.08,6.08,0,0,0-7,0c-.71.75-1.06,2.05-1.06,3.9s.35,3.15,1.06,3.9A4.7,4.7,0,0,0,476.6,47.21Z"/><path class="cls-1" d="M490,51.2v-18h4.75L495,35a15,15,0,0,1,3-1.39,17.67,17.67,0,0,1,3.56-.85v3.88c-.69.1-1.43.25-2.24.45a23.49,23.49,0,0,0-2.32.69,12.68,12.68,0,0,0-1.87.79V51.2Z"/><path class="cls-1" d="M511.31,51.58a6,6,0,0,1-4.62-1.64,6.3,6.3,0,0,1-1.5-4.44V37.13h-2.55v-4h2.55V29.3l5.13-1.52v5.4h4.56l-.3,4h-4.26v8a2.5,2.5,0,0,0,.69,2,3.32,3.32,0,0,0,2.12.55,7.08,7.08,0,0,0,2.21-.38V50.9a9.89,9.89,0,0,1-1.82.51A13.51,13.51,0,0,1,511.31,51.58Z"/></g></g></svg>