<?xml version="1.0" standalone="no"?>
<!DOCTYPE svg PUBLIC "-//W3C//DTD SVG 20010904//EN"
 "http://www.w3.org/TR/2001/REC-SVG-20010904/DTD/svg10.dtd">
<svg version="1.0" xmlns="http://www.w3.org/2000/svg"
 width="540.000000pt" height="726.000000pt" viewBox="0 0 540.000000 726.000000"
 preserveAspectRatio="xMidYMid meet">

<g transform="translate(0.000000,726.000000) scale(0.100000,-0.100000)"
fill="#000000" stroke="none">
<path d="M2395 7090 c-334 -37 -627 -123 -925 -271 -263 -131 -473 -282 -686
-494 -689 -686 -945 -1677 -677 -2620 38 -134 124 -357 178 -465 218 -434 970
-1478 1889 -2625 281 -350 489 -605 495 -605 8 0 34 33 391 490 951 1218 1661
2196 1908 2628 148 258 257 570 314 898 20 115 23 162 22 424 0 275 -2 305
-27 440 -53 291 -130 521 -261 775 -389 756 -1115 1276 -1961 1407 -148 22
-525 33 -660 18z m430 -700 c501 -46 972 -283 1296 -653 407 -464 572 -1086
448 -1687 -148 -719 -704 -1306 -1411 -1490 -460 -119 -933 -73 -1353 133
-556 274 -930 758 -1062 1376 -26 118 -27 142 -27 376 0 235 1 258 27 380 157
736 686 1305 1395 1501 231 63 461 85 687 64z"/>
<path d="M1920 4461 l0 -1501 295 0 295 0 0 444 0 443 168 6 c92 3 205 13 252
22 465 91 813 391 921 795 30 110 33 345 6 454 -43 173 -124 320 -250 452
-166 174 -370 289 -627 352 -104 25 -111 25 -582 29 l-478 5 0 -1501z m954
889 c165 -42 308 -147 368 -268 31 -63 33 -73 33 -177 0 -105 -2 -114 -33
-177 -56 -113 -171 -203 -327 -255 -69 -22 -102 -27 -242 -31 l-163 -4 0 466
0 466 143 0 c110 0 162 -5 221 -20z"/>
</g>
</svg>
